<svg width="108" height="38" viewBox="0 0 108 38" fill="none" xmlns="http://www.w3.org/2000/svg">
<path d="M22.6156 19.4658C22.547 13.9957 27.0331 9.17865 33.0288 9.16593C38.7886 9.15321 43.4076 13.7752 43.4248 19.4955C43.4377 24.9867 38.9602 29.7953 32.9773 29.7741C26.9602 29.7529 22.5427 24.8977 22.6156 19.4658Z" fill="url(#paint0_linear_3716_1093)"/>
<path d="M46.7442 29.7741C41.2031 29.842 36.3225 25.3981 36.3096 19.4615C36.2967 13.7582 40.9801 9.18289 46.7742 9.16593C52.3411 9.15321 57.2088 13.5886 57.1874 19.5124C57.1659 25.4744 52.2467 29.8462 46.7442 29.7741Z" fill="#FFCC00"/>
<path d="M62.7973 29.1338C62.2312 29.1338 61.7208 28.96 61.2619 28.6123C60.803 28.2645 60.5757 27.7642 60.5757 27.1112V2.28381C60.5757 1.54175 60.803 0.990499 61.2619 0.617346C61.7208 0.248434 62.2312 0.0618591 62.7973 0.0618591C63.3634 0.0618591 63.8738 0.248434 64.3327 0.617346C64.7916 0.986258 65.0189 1.54175 65.0189 2.28381V27.1112C65.0189 27.7642 64.7916 28.2645 64.3327 28.6123C63.8738 28.96 63.3634 29.1338 62.7973 29.1338Z"/>
<path d="M78.6528 29.1338C75.432 29.1338 72.923 28.2094 71.1217 26.3649C69.3205 24.5203 68.4155 22.0312 68.4155 18.8976C68.4155 16.1498 69.329 13.8982 71.1518 12.1384C72.9745 10.3787 75.3247 9.50092 78.2025 9.50092C80.9902 9.50092 83.2247 10.3066 84.8973 11.9137C86.5699 13.525 87.4105 15.5095 87.4105 17.8672C87.4105 18.8128 87.1618 19.5209 86.6686 19.9916C86.1754 20.4623 85.5406 20.6997 84.7686 20.6997H73.5663C73.1375 20.6997 72.9874 20.9372 73.116 21.4079C73.4591 22.6079 74.1582 23.545 75.209 24.2065C76.2597 24.8723 77.452 25.203 78.7815 25.203C79.7679 25.203 80.7243 25.0758 81.6464 24.8171C82.5685 24.5585 83.3748 24.1726 84.061 23.6595C84.2754 23.4899 84.5542 23.4008 84.8973 23.4008C85.3691 23.4008 85.798 23.6044 86.1839 24.0115C86.5699 24.4185 86.7629 24.9019 86.7629 25.4617C86.7629 25.7203 86.72 25.9747 86.6343 26.2334C86.5485 26.4921 86.3555 26.7465 86.0553 27.0052C84.9402 27.8193 83.7479 28.379 82.4827 28.6801C81.2175 28.9854 79.9438 29.1338 78.6528 29.1338ZM82.3884 17.3541C82.6457 17.3541 82.7744 17.2269 82.7744 16.9682C82.7744 15.9802 82.3326 15.1236 81.4534 14.3943C80.5742 13.665 79.4892 13.3003 78.2025 13.3003C77.0874 13.3003 76.0238 13.6013 75.016 14.2035C74.0081 14.8056 73.3948 15.5986 73.1804 16.5866V16.6502C73.1375 16.824 73.1246 16.9724 73.1503 17.0997C73.1718 17.2269 73.3519 17.2947 73.6993 17.2947L82.3884 17.3541Z"/>
<path d="M90.8244 29.1338C90.2668 29.1338 89.7522 28.9091 89.2804 28.4596C88.8086 28.0101 88.5728 27.5055 88.5728 26.95C88.5728 26.4369 88.7657 25.9875 89.1517 25.6016L94.6757 19.8177C94.8901 19.5167 94.9973 19.2834 94.9973 19.1096C94.9973 18.8509 94.8901 18.6177 94.6757 18.4014L89.4691 13.0035C89.1689 12.66 89.0188 12.2529 89.0188 11.7822C89.0188 11.1843 89.2761 10.6585 89.7908 10.2091C90.3054 9.75958 90.8415 9.53484 91.3991 9.53484C91.6564 9.53484 91.9223 9.58996 92.2011 9.69597C92.4798 9.80198 92.7243 10.0055 92.9387 10.3066L97.1803 15.3823C97.4806 15.6834 97.7164 15.8318 97.888 15.8318C98.1453 15.8318 98.3812 15.6834 98.5956 15.3823L102.837 10.3066C103.052 10.0055 103.296 9.80198 103.575 9.69597C103.854 9.58996 104.12 9.53484 104.377 9.53484C104.977 9.53484 105.513 9.7723 105.985 10.243C106.457 10.7137 106.693 11.2479 106.693 11.8501C106.693 12.3208 106.543 12.7278 106.243 13.0713L101.165 18.4014C100.993 18.5753 100.907 18.8085 100.907 19.1096C100.907 19.3682 100.993 19.6015 101.165 19.8177L106.629 25.6016C107.015 25.9875 107.207 26.4369 107.207 26.95C107.207 27.5055 106.972 28.0101 106.5 28.4596C106.028 28.9091 105.513 29.1338 104.956 29.1338C104.398 29.1338 103.905 28.9176 103.476 28.4893L98.5999 22.7733C98.4284 22.4722 98.1925 22.3238 97.8923 22.3238C97.6778 22.3238 97.4419 22.4764 97.1846 22.7733L92.2997 28.4893C91.8751 28.9218 91.3819 29.1338 90.8244 29.1338Z"/>
<path d="M18.1595 14.6911C17.3103 13.296 16.1566 12.202 14.707 11.4006C13.3089 10.6331 11.7392 10.2345 9.99792 10.2091V10.2048H2.79277C2.02079 10.2048 1.38605 10.4423 0.892838 10.913C0.399628 11.3836 0.150879 12.0918 0.150879 13.0374C0.150879 13.1179 0.155168 13.19 0.163746 13.2664C0.159457 13.3257 0.150879 13.3809 0.150879 13.4402V18.1258C0.150879 18.7492 0.369607 19.2241 0.802774 19.5548C1.24023 19.8856 1.72486 20.051 2.26525 20.051C2.80135 20.051 3.29027 19.8856 3.72772 19.5548C4.16089 19.2241 4.37962 18.7449 4.37962 18.1258V14.3689C4.37962 14.1102 4.51686 13.983 4.77418 13.983L9.62051 14.0127C9.68055 14.0169 9.7363 14.0169 9.78777 14.0169C11.4046 14.0169 12.7127 14.5088 13.7034 15.4926C14.6984 16.4763 15.1959 17.7908 15.1959 19.4276C15.1959 21.1492 14.6984 22.5316 13.7034 23.5789C12.7084 24.6221 11.4003 25.1479 9.78777 25.1479H2.79277C2.02079 25.1479 1.38605 25.3853 0.892838 25.856C0.399628 26.3267 0.150879 27.0348 0.150879 27.9804V35.8421C0.150879 36.4569 0.369607 36.9276 0.802774 37.2541C1.24023 37.5806 1.72486 37.746 2.26525 37.746C2.80135 37.746 3.29027 37.5806 3.72772 37.2541C4.16089 36.9276 4.37962 36.4527 4.37962 35.8421V29.3119C4.37962 29.0532 4.51686 28.926 4.77418 28.926L9.57762 28.9557C9.65053 28.9557 9.71915 28.96 9.78777 28.96C9.83494 28.96 9.87783 28.9557 9.92501 28.9557H10.0451V28.9515C11.7649 28.9133 13.3174 28.5105 14.6984 27.7303C16.148 26.9119 17.3017 25.7754 18.1509 24.3168C19.0001 22.8623 19.4247 21.234 19.4247 19.4276C19.4332 17.6636 19.0086 16.0862 18.1595 14.6911Z"/>
<defs>
<linearGradient id="paint0_linear_3716_1093" x1="33.0211" y1="9.16402" x2="33.0211" y2="29.7747" gradientUnits="userSpaceOnUse">
<stop stop-color="#3366FF"/>
<stop offset="1" stop-color="#FF00FF"/>
</linearGradient>
</defs>
</svg>
